<svg width="14" height="16" viewBox="0 0 14 16" fill="none" xmlns="http://www.w3.org/2000/svg">
<path d="M1.48874 16C1.07272 16 0.720588 15.8535 0.432353 15.5606C0.144118 15.2676 0 14.9097 0 14.4869V3.28366C0 2.86082 0.144118 2.50292 0.432353 2.20996C0.720588 1.917 1.07272 1.77052 1.48874 1.77052H2.62891V0H3.89591V1.77052H10.1358V0H11.3711V1.77052H12.5113C12.9273 1.77052 13.2794 1.917 13.5676 2.20996C13.8559 2.50292 14 2.86082 14 3.28366V14.4869C14 14.9097 13.8559 15.2676 13.5676 15.5606C13.2794 15.8535 12.9273 16 12.5113 16H1.48874ZM1.48874 14.7445H12.5113C12.5747 14.7445 12.6327 14.7176 12.6854 14.6639C12.7383 14.6103 12.7647 14.5513 12.7647 14.4869V6.63177H1.23529V14.4869C1.23529 14.5513 1.26172 14.6103 1.31456 14.6639C1.36726 14.7176 1.42532 14.7445 1.48874 14.7445ZM1.23529 5.37623H12.7647V3.28366C12.7647 3.21921 12.7383 3.1602 12.6854 3.10663C12.6327 3.05292 12.5747 3.02607 12.5113 3.02607H1.48874C1.42532 3.02607 1.36726 3.05292 1.31456 3.10663C1.26172 3.1602 1.23529 3.21921 1.23529 3.28366V5.37623ZM7 9.78674C6.79837 9.78674 6.62653 9.71455 6.48447 9.57016C6.34255 9.42591 6.27159 9.25125 6.27159 9.04618C6.27159 8.84125 6.34255 8.66659 6.48447 8.5222C6.62653 8.37795 6.79837 8.30583 7 8.30583C7.20163 8.30583 7.37347 8.37795 7.51553 8.5222C7.65745 8.66659 7.72841 8.84125 7.72841 9.04618C7.72841 9.25125 7.65745 9.42591 7.51553 9.57016C7.37347 9.71455 7.20163 9.78674 7 9.78674ZM3.70588 9.78674C3.50426 9.78674 3.33241 9.71455 3.19035 9.57016C3.04843 9.42591 2.97747 9.25125 2.97747 9.04618C2.97747 8.84125 3.04843 8.66659 3.19035 8.5222C3.33241 8.37795 3.50426 8.30583 3.70588 8.30583C3.90751 8.30583 4.07935 8.37795 4.22141 8.5222C4.36333 8.66659 4.43429 8.84125 4.43429 9.04618C4.43429 9.25125 4.36333 9.42591 4.22141 9.57016C4.07935 9.71455 3.90751 9.78674 3.70588 9.78674ZM10.2941 9.78674C10.0925 9.78674 9.92065 9.71455 9.77859 9.57016C9.63667 9.42591 9.56571 9.25125 9.56571 9.04618C9.56571 8.84125 9.63667 8.66659 9.77859 8.5222C9.92065 8.37795 10.0925 8.30583 10.2941 8.30583C10.4957 8.30583 10.6676 8.37795 10.8096 8.5222C10.9516 8.66659 11.0225 8.84125 11.0225 9.04618C11.0225 9.25125 10.9516 9.42591 10.8096 9.57016C10.6676 9.71455 10.4957 9.78674 10.2941 9.78674ZM7 13.0704C6.79837 13.0704 6.62653 12.9982 6.48447 12.8538C6.34255 12.7096 6.27159 12.535 6.27159 12.3301C6.27159 12.125 6.34255 11.9503 6.48447 11.8061C6.62653 11.6617 6.79837 11.5895 7 11.5895C7.20163 11.5895 7.37347 11.6617 7.51553 11.8061C7.65745 11.9503 7.72841 12.125 7.72841 12.3301C7.72841 12.535 7.65745 12.7096 7.51553 12.8538C7.37347 12.9982 7.20163 13.0704 7 13.0704ZM3.70588 13.0704C3.50426 13.0704 3.33241 12.9982 3.19035 12.8538C3.04843 12.7096 2.97747 12.535 2.97747 12.3301C2.97747 12.125 3.04843 11.9503 3.19035 11.8061C3.33241 11.6617 3.50426 11.5895 3.70588 11.5895C3.90751 11.5895 4.07935 11.6617 4.22141 11.8061C4.36333 11.9503 4.43429 12.125 4.43429 12.3301C4.43429 12.535 4.36333 12.7096 4.22141 12.8538C4.07935 12.9982 3.90751 13.0704 3.70588 13.0704ZM10.2941 13.0704C10.0925 13.0704 9.92065 12.9982 9.77859 12.8538C9.63667 12.7096 9.56571 12.535 9.56571 12.3301C9.56571 12.125 9.63667 11.9503 9.77859 11.8061C9.92065 11.6617 10.0925 11.5895 10.2941 11.5895C10.4957 11.5895 10.6676 11.6617 10.8096 11.8061C10.9516 11.9503 11.0225 12.125 11.0225 12.3301C11.0225 12.535 10.9516 12.7096 10.8096 12.8538C10.6676 12.9982 10.4957 13.0704 10.2941 13.0704Z" fill="#6B7A94"/>
</svg>
