<svg width="16" height="16" viewBox="0 0 16 16" fill="none" xmlns="http://www.w3.org/2000/svg">
<path d="M8 11.3488C7.07076 11.3488 6.28031 11.023 5.62865 10.3713C4.97699 9.71969 4.65116 8.92924 4.65116 8C4.65116 7.07076 4.97699 6.28031 5.62865 5.62865C6.28031 4.97699 7.07076 4.65116 8 4.65116C8.92924 4.65116 9.71969 4.97699 10.3713 5.62865C11.023 6.28031 11.3488 7.07076 11.3488 8C11.3488 8.92924 11.023 9.71969 10.3713 10.3713C9.71969 11.023 8.92924 11.3488 8 11.3488ZM2.7907 8.55814H0V7.44186H2.7907V8.55814ZM16 8.55814H13.2093V7.44186H16V8.55814ZM7.44186 2.7907V0H8.55814V2.7907H7.44186ZM7.44186 16V13.2093H8.55814V16H7.44186ZM3.9613 4.70847L2.21823 3.02549L3.00688 2.19963L4.68558 3.92409L3.9613 4.70847ZM12.9931 13.8004L11.3031 12.0644L12.0387 11.2915L13.7818 12.9745L12.9931 13.8004ZM11.2915 3.9613L12.9745 2.21823L13.8004 3.00688L12.0759 4.68558L11.2915 3.9613ZM2.19963 12.9931L3.93563 11.3031L4.69414 12.0387L3.01823 13.7888L2.19963 12.9931Z" fill="#F0F2F4"/>
</svg>
