<svg width="34" height="34" viewBox="0 0 34 34" fill="none" xmlns="http://www.w3.org/2000/svg">
<circle cx="17" cy="17" r="17" fill="#E1E4EA"/>
<path d="M26.4998 8.09196C26.5912 8.21674 26.0011 9.09297 25.8945 9.25657C25.5953 9.7141 25.2725 10.1661 24.8902 10.5571C25.4443 10.9688 25.8806 11.5775 26.0565 12.2485C26.3682 13.4381 25.9679 14.7289 25.7282 15.9018C26.8572 16.8529 26.9901 18.238 26.2615 19.4969C25.8474 20.2137 24.9539 20.8792 24.2018 21.1953C24.1948 21.4518 24.102 21.7443 24.0092 21.9856C23.3028 23.8282 21.9688 25.8649 20.0947 26.8368C16.0652 28.9261 12.1063 26.3501 10.4871 22.4805C9.73076 20.6754 9.50498 18.7621 9.53822 16.8099C8.80684 16.6574 8.20152 16.8502 7.93833 17.5794C7.53109 18.7052 8.12533 19.7728 9.03678 20.4272C9.23071 20.5658 9.35815 20.4591 9.31105 20.8681C8.9329 20.9305 8.61153 20.6629 8.34281 20.43C7.93556 20.0778 7.61005 19.6355 7.43551 19.1239C7.06982 18.0578 7.35102 16.6519 8.53119 16.272C8.37328 15.6744 8.16827 15.0797 8.07962 14.4655C7.93279 13.4464 7.97573 12.3511 8.58106 11.4874C9.04371 10.8274 9.97594 10.3449 10.7877 10.6014C10.8625 10.625 11.1395 10.8607 11.2004 10.8108C10.5923 9.53664 11.1118 7.96718 12.0468 6.99943C13.7713 5.2123 16.237 5.22478 18.4726 5.9083C20.8856 6.64589 22.7612 7.4944 25.3321 7.89924C25.7102 7.95886 26.1299 7.93806 26.4998 8.09196ZM12.835 11.1144C12.7518 11.0229 12.5732 10.6735 12.4457 10.7387C12.2379 10.8454 11.5232 11.9893 11.3764 12.2541C10.9206 13.0749 10.5092 14.1299 10.2931 15.045C10.2225 15.3417 10.048 16.0973 10.0646 16.3635C10.066 16.3954 10.0826 16.4592 10.1048 16.4758L11.6188 17.0637C11.742 17.047 11.706 16.9264 11.7614 16.8391C11.972 16.5049 12.2033 16.2152 12.5427 16.0044C12.7075 15.9032 13.3004 15.5885 13.4486 15.759C13.4804 15.8478 13.5178 15.9088 13.4417 15.9781C13.3004 16.1056 12.9167 16.2041 12.7075 16.3538C11.3528 17.3354 11.8819 19.3777 13.5525 19.4816C13.5331 19.404 13.4181 19.4068 13.3447 19.3444C12.7006 18.7926 12.9859 17.2287 13.4597 16.6117C13.7783 16.1958 14.3503 16.0585 14.5761 16.6353C14.8559 17.3507 14.4667 18.9465 13.8752 19.4816C15.3241 19.3721 16.2287 17.5545 15.0831 16.4827C14.8449 16.2609 14.3005 16.1417 14.1938 16.0003C14.1024 15.8796 14.2229 15.5802 14.5775 15.6592C14.7839 15.7049 15.3601 16.0862 15.5125 16.2498C15.6441 16.3912 15.7383 16.6158 15.8796 16.7586C15.9073 16.7739 15.9308 16.5881 15.9946 16.5507C16.3935 16.3122 16.0887 17.2065 16.0417 17.3576L16.9351 17.3604C16.9725 17.3493 17.0985 16.821 17.1387 16.7254C17.3271 16.2678 17.7994 15.766 18.2566 15.5816C18.4117 15.5192 18.5142 15.6952 18.4643 15.7881C18.4325 15.8491 17.9061 16.1833 17.769 16.3413C16.7273 17.5434 17.557 19.3596 19.1071 19.4775C20.6571 19.5953 21.883 18.0827 21.0726 16.6796C20.7956 16.2013 20.4077 16.0322 19.9853 15.7562C19.9119 15.7077 19.8758 15.619 19.8952 15.5344L19.9119 15.4665C18.9311 15.1504 17.8839 15.3486 17.2094 16.1528C16.6553 16.0114 17.5127 15.4166 17.7357 15.2946C18.5031 14.8745 19.3509 14.9008 20.1529 15.2031C20.369 15.2849 21.1239 15.6842 21.1835 15.8824C21.2818 16.2082 21.394 16.2928 21.527 16.5964C22.4357 18.6733 20.2706 20.5367 18.2829 19.6133C17.5584 19.2764 17.1263 18.6636 16.9656 17.8872H16.0832C16.0112 18.4196 15.7147 18.8064 15.6316 19.3277C15.5236 20.0057 15.5804 20.7391 15.6247 21.4199C15.6954 21.492 17.3049 21.0511 17.5834 21.0469C18.0405 21.0414 17.9726 21.4393 17.5584 21.5793C17.1858 21.7055 16.194 21.9745 15.8311 21.9759C15.5527 21.9772 15.2895 21.919 15.2258 21.6182C15.187 21.4351 15.1676 20.839 15.1621 20.6144C15.151 20.2359 15.1648 19.856 15.2092 19.483C15.0222 19.5537 14.8656 19.6813 14.68 19.7603C13.076 20.4438 11.2545 19.2224 11.5689 17.4533C11.0702 17.4089 10.6131 17.1787 10.1532 16.9985L10.0092 17.0678C9.87759 19.7478 10.6325 22.6691 12.4 24.7183C16.2342 29.1632 21.6793 26.6676 23.39 21.7887C23.4468 21.6265 23.6463 20.7447 23.6989 20.692C23.7336 20.6573 23.8693 20.6671 23.9303 20.6324C24.3846 20.3773 24.8971 20.0972 25.303 19.7367C27.0649 18.1673 25.8889 15.3445 23.7017 16.0585C23.2654 16.2013 22.6268 16.8072 22.214 17.0609C21.9425 17.1801 21.786 16.9708 21.9065 16.7295L22.9052 15.9545C22.7861 15.8117 22.6365 15.6481 22.5382 15.4928C22.2722 15.0741 21.9259 14.2658 21.8123 13.775C21.7555 13.5324 21.7444 13.2301 21.7084 12.9792C21.2098 13.1303 20.7139 13.3313 20.2 13.4284C17.5834 13.9234 14.6454 13.0984 12.835 11.1144ZM18.6278 19.1766C18.873 19.5343 19.2054 19.4192 19.4492 19.1364C19.9506 18.5555 20.4008 16.8294 19.8398 16.211C19.675 16.0308 19.3231 16.0252 19.1417 16.1777C18.5405 16.6824 18.1748 18.5181 18.6264 19.178L18.6278 19.1766ZM11.5024 15.9323C11.4304 16.1181 11.5647 16.1597 11.7116 16.0488C12.7311 15.2751 13.8323 14.9396 14.9958 15.7091C15.1731 15.8256 15.3948 16.1209 15.5942 16.0613C16.0569 15.9226 15.1427 15.3417 14.9834 15.2613C14.4598 14.9992 13.8517 14.905 13.2671 14.9757C12.8156 15.0297 11.6783 15.4831 11.5038 15.9323H11.5024ZM19.5628 22.7537C19.5351 22.2684 19.0032 22.7107 18.6624 22.8992C18.3591 23.0684 17.762 23.7061 14.9848 23.7006C14.6191 23.7006 14.5637 24.1152 14.964 24.1373C17.4005 24.2718 18.776 23.4912 19.3509 23.0226C19.445 22.9464 19.5753 22.9783 19.5614 22.7537H19.5628Z" fill="#2B313B"/>
</svg>
