<svg width="10" height="14" viewBox="0 0 10 14" fill="none" xmlns="http://www.w3.org/2000/svg">
<path d="M2.96296 0C3.93642 0 4.85123 0.183719 5.70741 0.551158C6.56358 0.918596 7.30833 1.41725 7.94167 2.04713C8.575 2.67701 9.07636 3.41772 9.44574 4.26926C9.81525 5.12081 10 6.03062 10 6.99871C10 7.96692 9.81525 8.87698 9.44574 9.72889C9.07636 10.5808 8.575 11.3218 7.94167 11.9519C7.30833 12.5821 6.56358 13.081 5.70741 13.4487C4.85123 13.8162 3.93642 14 2.96296 14C2.44099 14 1.93136 13.9419 1.43407 13.8257C0.93679 13.7096 0.458765 13.5305 0 13.2886C1.0437 12.5735 1.86019 11.664 2.44944 10.5602C3.0387 9.45632 3.33333 8.26958 3.33333 7C3.33333 5.73042 3.0387 4.54367 2.44944 3.43976C1.86019 2.33597 1.0437 1.42653 0 0.711421C0.458765 0.469491 0.93679 0.290439 1.43407 0.174264C1.93136 0.0580881 2.44099 0 2.96296 0Z" fill="#2B313B"/>
</svg>
