<svg width="15" height="15" viewBox="0 0 15 15" fill="none" xmlns="http://www.w3.org/2000/svg">
<path d="M7.42297 15C9.51681 15 11.2902 14.2736 12.7432 12.8207C14.1964 11.3679 14.923 9.59483 14.923 7.5015C14.923 5.40817 14.1964 3.63458 12.7432 2.18075C11.2902 0.726916 9.51681 0 7.42297 0C6.25381 0 5.14739 0.259917 4.10372 0.77975C3.06022 1.29975 2.19231 2.03342 1.49997 2.98075V0H-2.76566e-05V6.11525H6.11522V4.6155H2.16522C2.69222 3.65 3.42306 2.88942 4.35772 2.33375C5.29222 1.77792 6.31397 1.5 7.42297 1.5C9.08964 1.5 10.5063 2.08333 11.673 3.25C12.8396 4.41667 13.423 5.83333 13.423 7.5C13.423 9.16667 12.8396 10.5833 11.673 11.75C10.5063 12.9167 9.08964 13.5 7.42297 13.5C6.13964 13.5 4.98131 13.1333 3.94797 12.4C2.91464 11.6667 2.18964 10.7 1.77297 9.5H0.192223C0.646056 11.132 1.53997 12.4567 2.87397 13.474C4.20797 14.4913 5.72431 15 7.42297 15Z" fill="#8995A9"/>
</svg>
